HIERARCHY
ROOT root
{
	OFFSET	0	13.1	24.9
	CHANNELS 6  Xposition Yposition Zposition Xrotation Yrotation Zrotation
	JOINT spine_1
	{
		OFFSET	0	9.99999	0
		CHANNELS 3  Xrotation Yrotation Zrotation
		JOINT spine_2
		{
			OFFSET	0	112	-10
			CHANNELS 3  Xrotation Yrotation Zrotation
			JOINT spine_3
			{
				OFFSET	0	206.5	19.3
				CHANNELS 3  Xrotation Yrotation Zrotation
				JOINT spine_4
				{
					OFFSET	0	110.4	14.6
					CHANNELS 3  Xrotation Yrotation Zrotation
					JOINT neck_1
					{
						OFFSET	0	71.8	-50.3
						CHANNELS 3  Xrotation Yrotation Zrotation
						JOINT neck_2
						{
							OFFSET	0	86.2	-25.8
							CHANNELS 3  Xrotation Yrotation Zrotation
							JOINT head_ee
							{
								OFFSET	0	179.8	-8.7
								CHANNELS 3  Xrotation Yrotation Zrotation
								End Site
								{
									OFFSET	1	0	0
								}
							}
						}
					}
					JOINT left_clavicle
					{
						OFFSET	-43.2	22.4	-70.8
						CHANNELS 3  Xrotation Yrotation Zrotation
						JOINT left_shoulder
						{
							OFFSET	-93.9	-5.79999	48.7
							CHANNELS 3  Xrotation Yrotation Zrotation
							JOINT left_elbow
							{
								OFFSET	-291.4	-30.8	15.2
								CHANNELS 3  Xrotation Yrotation Zrotation
								JOINT left_lowarm_twist
								{
									OFFSET	-110.7	-3.89999	13.6
									CHANNELS 3  Xrotation Yrotation Zrotation
									JOINT left_hand
									{
										OFFSET	-110.7	-3.89999	13.6
										CHANNELS 3  Xrotation Yrotation Zrotation
										JOINT left_ee
										{
											OFFSET	-80.8	-5.10001	12.1
											CHANNELS 3  Xrotation Yrotation Zrotation
											End Site
											{
												OFFSET	1	0	0
											}
										}
									}
								}
							}
						}
					}
					JOINT right_clavicle
					{
						OFFSET	43.2	22.4	-70.8
						CHANNELS 3  Xrotation Yrotation Zrotation
						JOINT right_shoulder
						{
							OFFSET	93.9	-5.79999	48.7
							CHANNELS 3  Xrotation Yrotation Zrotation
							JOINT right_elbow
							{
								OFFSET	291.4	-30.8	15.2
								CHANNELS 3  Xrotation Yrotation Zrotation
								JOINT right_lowarm_twist
								{
									OFFSET	110.7	-3.89999	13.6
									CHANNELS 3  Xrotation Yrotation Zrotation
									JOINT right_hand
									{
										OFFSET	110.7	-3.89999	13.6
										CHANNELS 3  Xrotation Yrotation Zrotation
										JOINT right_ee
										{
											OFFSET	80.8	-5.10001	12.1
											CHANNELS 3  Xrotation Yrotation Zrotation
											End Site
											{
												OFFSET	1	0	0
											}
										}
									}
								}
							}
						}
					}
				}
			}
		}
	}
	JOINT left_hip
	{
		OFFSET	-82.8	-127.5	0.300001
		CHANNELS 3  Xrotation Yrotation Zrotation
		JOINT left_knee
		{
			OFFSET	-28.2	-396.7	2.2
			CHANNELS 3  Xrotation Yrotation Zrotation
			JOINT left_ankle
			{
				OFFSET	-11.7	-411.3	35.4
				CHANNELS 3  Xrotation Yrotation Zrotation
				JOINT left_toes
				{
					OFFSET	0	-60	-88.6
					CHANNELS 3  Xrotation Yrotation Zrotation
					JOINT left_foot_ee
					{
						OFFSET	-22.5	-16.5	-42.2
						CHANNELS 3  Xrotation Yrotation Zrotation
						End Site
						{
							OFFSET	1	0	0
						}
					}
				}
			}
		}
	}
	JOINT right_hip
	{
		OFFSET	82.8	-127.5	0.300001
		CHANNELS 3  Xrotation Yrotation Zrotation
		JOINT right_knee
		{
			OFFSET	28.2	-396.7	2.2
			CHANNELS 3  Xrotation Yrotation Zrotation
			JOINT right_ankle
			{
				OFFSET	11.7	-411.3	35.4
				CHANNELS 3  Xrotation Yrotation Zrotation
				JOINT right_toes
				{
					OFFSET	0	-60	-88.6
					CHANNELS 3  Xrotation Yrotation Zrotation
					JOINT right_foot_ee
					{
						OFFSET	22.5	-16.5	-42.2
						CHANNELS 3  Xrotation Yrotation Zrotation
						End Site
						{
							OFFSET	1	0	0
						}
					}
				}
			}
		}
	}
}
MOTION
Frames: 15
Frame Time: 0.02
2800.94 716.97 -1473.77 41.8499947197 81.2965658879 -40.4201784608 -1.90493 -0.2927 -2.02378 -1.90267 -0.163356 -2.0383 -1.89452 0.335667 -2.0171 -1.90019 0.0129595 -2.04479 -28.5422 13.2259 -2.88029 -30.3902 26.3378 5.34232 -0.0 0.0 -0.0 3.45507 7.34597 7.03967 2.22115 -30.0788 68.4561 3.41838 -59.4223 1.95108 -11.4281 -0.539842 1.35533 -0.176129 5.00654 0.937378 -0.0 0.0 -0.0 2.87563 11.7366 -4.62202 -17.9354 27.9171 -62.9627 0.583829 16.1306 -0.0827314 29.7832 -0.0730043 3.76136 7.35524 -13.2868 -67.9446 0.0 0.0 0.0 -17.0264 17.2 0.440367 -26.7646 0.154329 4.06721 39.0372 -6.39632 -4.87014 -38.4354 0.0 0.0 -0.0 0.0 -0.0 24.7239 14.3594 -1.18749 -7.67375 -0.239058 -1.15255 41.4031 -23.4889 5.25195 9.53511 -0.0 -0.0 0.0 0.0 0.0 
2755.5971028 722.087 -1481.9254996 35.5959592513 81.880337602 -34.388567705 -1.71635 0.0497076 -1.93953 -1.71428 0.173001 -1.93244 -1.71857 0.630847 -1.83478 -1.72311 0.333217 -1.91135 -22.3142 16.1597 0.108156 -24.1895 31.0757 8.19407 -0.0 0.0 -0.0 3.69795 6.15382 7.42781 -1.56428 -30.1977 69.4806 2.22086 -47.7238 0.982484 -11.6584 -0.553474 1.38146 0.137626 0.551549 1.15003 -0.0 0.0 -0.0 2.79903 12.7725 -4.37017 -17.1091 29.9304 -62.6366 0.624373 17.1868 -0.0943547 30.2089 -0.0598508 3.81414 7.54989 -12.3387 -71.4259 0.0 0.0 0.0 -17.6221 18.0328 0.747778 -27.2988 0.138013 4.14757 31.4827 -2.4479 -4.08831 -40.0608 0.0 0.0 -0.0 0.0 -0.0 23.9578 14.5275 -1.75819 -8.37667 -0.253192 -1.25949 40.9927 -22.6935 5.19045 10.7589 -0.0 -0.0 0.0 0.0 0.0 
2755.72360958 722.087 -1482.59997945 32.3925362275 81.1724628461 -31.1498702275 -1.71635 0.0497076 -1.93953 -1.71428 0.173001 -1.93244 -1.71857 0.630847 -1.83478 -1.72311 0.333217 -1.91135 -22.3142 16.1597 0.108156 -24.1895 31.0757 8.19407 -0.0 0.0 -0.0 3.69795 6.15382 7.42781 -1.56428 -30.1977 69.4806 2.22086 -47.7238 0.982484 -11.6584 -0.553474 1.38146 0.137626 0.551549 1.15003 -0.0 0.0 -0.0 2.79903 12.7725 -4.37017 -17.1091 29.9304 -62.6366 0.624373 17.1868 -0.0943547 30.2089 -0.0598508 3.81414 7.54989 -12.3387 -71.4259 0.0 0.0 0.0 -17.6221 18.0328 0.747778 -27.2988 0.138013 4.14757 31.4827 -2.4479 -4.08831 -40.0608 0.0 0.0 -0.0 0.0 -0.0 23.9578 14.5275 -1.75819 -8.37667 -0.253192 -1.25949 40.9927 -22.6935 5.19045 10.7589 -0.0 -0.0 0.0 0.0 0.0 
2755.81922648 722.087 -1483.07625043 30.4236277665 80.6567672231 -29.1559714348 -1.71635 0.0497076 -1.93953 -1.71428 0.173001 -1.93244 -1.71857 0.630847 -1.83478 -1.72311 0.333217 -1.91135 -22.3142 16.1597 0.108156 -24.1895 31.0757 8.19407 -0.0 0.0 -0.0 3.69795 6.15382 7.42781 -1.56428 -30.1977 69.4806 2.22086 -47.7238 0.982484 -11.6584 -0.553474 1.38146 0.137626 0.551549 1.15003 -0.0 0.0 -0.0 2.79903 12.7725 -4.37017 -17.1091 29.9304 -62.6366 0.624373 17.1868 -0.0943547 30.2089 -0.0598508 3.81414 7.54989 -12.3387 -71.4259 0.0 0.0 0.0 -17.6221 18.0328 0.747778 -27.2988 0.138013 4.14757 31.4827 -2.4479 -4.08831 -40.0608 0.0 0.0 -0.0 0.0 -0.0 23.9578 14.5275 -1.75819 -8.37667 -0.253192 -1.25949 40.9927 -22.6935 5.19045 10.7589 -0.0 -0.0 0.0 0.0 0.0 
2755.9671777 722.087 -1483.76678721 27.9256709425 79.8897148024 -26.6216504835 -1.71635 0.0497076 -1.93953 -1.71428 0.173001 -1.93244 -1.71857 0.630847 -1.83478 -1.72311 0.333217 -1.91135 -22.3142 16.1597 0.108156 -24.1895 31.0757 8.19407 -0.0 0.0 -0.0 3.69795 6.15382 7.42781 -1.56428 -30.1977 69.4806 2.22086 -47.7238 0.982484 -11.6584 -0.553474 1.38146 0.137626 0.551549 1.15003 -0.0 0.0 -0.0 2.79903 12.7725 -4.37017 -17.1091 29.9304 -62.6366 0.624373 17.1868 -0.0943547 30.2089 -0.0598508 3.81414 7.54989 -12.3387 -71.4259 0.0 0.0 0.0 -17.6221 18.0328 0.747778 -27.2988 0.138013 4.14757 31.4827 -2.4479 -4.08831 -40.0608 0.0 0.0 -0.0 0.0 -0.0 23.9578 14.5275 -1.75819 -8.37667 -0.253192 -1.25949 40.9927 -22.6935 5.19045 10.7589 -0.0 -0.0 0.0 0.0 0.0 
2730.88522717 725.594 -1490.74974347 27.7691475594 80.0006814442 -26.7742886101 -1.69709 0.14786 -1.90969 -1.6951 0.269056 -1.89641 -1.70269 0.715019 -1.77698 -1.70684 0.425457 -1.86757 -19.664 17.3564 0.943478 -21.4121 32.9337 8.72324 -0.0 0.0 -0.0 3.82424 6.63069 7.67606 -4.35656 -29.9758 69.7846 1.92409 -43.6209 0.770049 -11.7812 -0.560779 1.39537 0.292248 -0.748613 1.63963 -0.0 0.0 -0.0 2.83703 13.0467 -4.42556 -16.126 31.1067 -62.4574 0.653394 17.9354 -0.103111 30.2793 -0.057637 3.82286 7.61137 -12.1033 -72.7156 0.0 0.0 0.0 -18.3592 18.223 1.13569 -28.0055 0.115277 4.25365 28.6899 -1.16682 -3.77806 -40.3113 0.0 0.0 -0.0 0.0 -0.0 22.8345 14.6724 -1.56498 -8.9497 -0.263742 -1.34679 40.195 -22.6541 5.11512 11.0154 -0.0 -0.0 0.0 0.0 0.0 
2709.42305334 729.204 -1499.56807501 32.0348430445 81.409437566 -31.4796254674 -1.80548 0.148118 -1.63127 -1.80403 0.251606 -1.61854 -1.81018 0.634364 -1.51018 -1.81315 0.387931 -1.59139 -19.1462 18.058 1.64415 -20.9283 33.904 9.54109 -0.0 0.0 -0.0 3.3526 6.16464 6.80011 -6.31783 -29.356 69.8524 1.78164 -41.4268 0.673748 -11.7691 -0.560058 1.394 0.380019 -1.44499 1.93673 -0.0 0.0 -0.0 2.98895 13.2952 -4.72319 -15.3953 32.2513 -62.2431 0.702618 19.1908 -0.118782 30.3296 -0.0560498 3.82909 7.62855 -11.8007 -72.9171 0.0 0.0 0.0 -18.6468 18.1699 0.517667 -28.5531 0.0967585 4.33565 26.1411 0.189035 -3.4831 -40.3527 0.0 0.0 -0.0 0.0 -0.0 22.9613 14.692 -1.8561 -13.1412 -0.314292 -1.98781 39.3349 -22.5852 5.03172 11.1687 -0.0 -0.0 0.0 0.0 0.0 
2709.60299593 729.204 -1500.19808898 30.7009684147 81.0723021327 -30.1300179139 -1.80548 0.148118 -1.63127 -1.80403 0.251606 -1.61854 -1.81018 0.634364 -1.51018 -1.81315 0.387931 -1.59139 -19.1462 18.058 1.64415 -20.9283 33.904 9.54109 -0.0 0.0 -0.0 3.3526 6.16464 6.80011 -6.31783 -29.356 69.8524 1.78164 -41.4268 0.673748 -11.7691 -0.560058 1.394 0.380019 -1.44499 1.93673 -0.0 0.0 -0.0 2.98895 13.2952 -4.72319 -15.3953 32.2513 -62.2431 0.702618 19.1908 -0.118782 30.3296 -0.0560498 3.82909 7.62855 -11.8007 -72.9171 0.0 0.0 0.0 -18.6468 18.1699 0.517667 -28.5531 0.0967585 4.33565 26.1411 0.189035 -3.4831 -40.3527 0.0 0.0 -0.0 0.0 -0.0 22.9613 14.692 -1.8561 -13.1412 -0.314292 -1.98781 39.3349 -22.5852 5.03172 11.1687 -0.0 -0.0 0.0 0.0 0.0 
2678.02080224 735.633 -1504.95460304 42.310723819 81.7972842293 -42.4977721741 -2.01315 0.210992 -1.47087 -2.012 0.30415 -1.45447 -2.019 0.650668 -1.33591 -2.02123 0.431542 -1.42189 -17.5922 18.7441 2.58661 -19.1976 34.6214 10.1527 -0.0 0.0 -0.0 2.74297 6.69447 5.72565 -8.27799 -29.5987 70.707 1.56798 -37.8348 0.537401 -11.6598 -0.553553 1.38162 0.680652 -2.00486 3.72197 -0.0 0.0 -0.0 3.14413 12.3229 -5.13368 -13.8938 32.5679 -62.5929 0.728669 19.8476 -0.127487 30.3598 -0.0550954 3.83282 7.61165 -11.7177 -72.4422 0.0 0.0 0.0 -17.2649 17.8651 0.206546 -30.4698 0.0257844 4.62123 24.371 1.0999 -3.27312 -40.1113 0.0 0.0 -0.0 0.0 -0.0 20.1348 14.6574 -1.94704 -15.7692 -0.322026 -2.39091 40.4792 -22.1252 5.12691 11.3299 -0.0 -0.0 0.0 0.0 0.0 
2656.94380075 743.195 -1505.38998524 44.0027254357 81.9298666635 -44.9293295459 -2.21247 0.261872 -1.21224 -2.21171 0.338474 -1.19313 -2.21836 0.623737 -1.07196 -2.21969 0.446625 -1.157 -18.5273 19.4634 1.6435 -20.5511 36.5675 10.0732 -0.0 0.0 -0.0 2.57019 7.83686 5.48614 -9.18445 -29.196 71.463 1.18198 -30.3486 0.320577 -12.5513 -0.607294 1.48223 0.635121 -1.40833 3.66356 -0.0 0.0 -0.0 3.51292 13.1446 -5.8396 -13.3348 33.3998 -62.1671 0.695898 19.0205 -0.116583 29.1175 -0.0927874 3.67862 7.5802 -11.137 -71.2944 0.0 0.0 0.0 -15.8942 16.9361 0.387724 -32.113 -0.0426521 4.86409 25.4301 1.32444 -3.39477 -40.1238 0.0 0.0 -0.0 0.0 -0.0 18.6627 14.6499 -2.00215 -15.6247 -0.322081 -2.36873 38.3653 -22.8313 4.94471 10.2014 -0.0 -0.0 0.0 0.0 0.0 
2643.8522297 739.735 -1509.38847199 50.7532779669 82.5208827085 -51.88578531 -2.23547 0.280333 -1.01251 -2.23497 0.344191 -0.992626 -2.24072 0.579886 -0.876082 -2.24153 0.434254 -0.956662 -17.3371 19.8694 1.57468 -19.235 37.304 9.73868 -0.0 0.0 -0.0 2.11742 8.46628 4.72709 -9.91031 -29.3595 71.979 1.00719 -26.5154 0.23731 -12.8604 -0.626296 1.51693 0.719752 -1.14786 4.33972 -0.0 0.0 -0.0 3.57494 13.9917 -5.89957 -9.95593 34.3256 -61.6387 0.707189 19.3064 -0.120289 28.4293 -0.112224 3.59286 7.57867 -11.0087 -71.1696 0.0 0.0 0.0 -15.9329 16.1745 0.277082 -33.2068 -0.0920603 5.02464 25.9752 1.76197 -3.45494 -39.6553 0.0 0.0 -0.0 0.0 -0.0 17.7795 14.6741 -2.35012 -17.319 -0.31792 -2.62864 37.359 -22.922 4.84769 9.85408 -0.0 -0.0 0.0 0.0 0.0 
2623.54452278 739.72 -1513.56157539 52.4086690233 82.3375184664 -53.1687939582 -2.25419 0.312568 -0.874625 -2.25384 0.367587 -0.852965 -2.25924 0.5681 -0.734806 -2.25971 0.444926 -0.8153 -19.5033 20.0896 2.28688 -21.8356 37.4989 11.4083 -0.0 0.0 -0.0 1.64266 9.55698 3.97954 -10.1251 -29.3665 72.8262 0.844544 -22.7024 0.169545 -12.9486 -0.631751 1.52681 0.750735 -0.584246 4.78013 -0.0 0.0 -0.0 3.68377 13.9459 -6.1335 -7.12268 35.1455 -61.4846 0.762943 20.7035 -0.139364 28.1266 -0.120447 3.55507 7.64872 -11.0407 -72.8321 0.0 0.0 0.0 -15.8742 13.672 -0.383848 -35.8873 -0.226063 5.41398 23.3958 3.67856 -3.14731 -40.1201 0.0 0.0 -0.0 0.0 -0.0 16.9379 14.2431 -3.4167 -18.6473 -0.309284 -2.83226 39.1797 -21.8418 4.99699 9.37975 -0.0 -0.0 0.0 0.0 0.0 
2624.6873029 739.72 -1518.35151605 44.3308400021 81.3039068153 -45.0085604264 -2.25419 0.312568 -0.874625 -2.25384 0.367587 -0.852965 -2.25924 0.5681 -0.734806 -2.25971 0.444926 -0.8153 -19.5033 20.0896 2.28688 -21.8356 37.4989 11.4083 -0.0 0.0 -0.0 1.64266 9.55698 3.97954 -10.1251 -29.3665 72.8262 0.844544 -22.7024 0.169545 -12.9486 -0.631751 1.52681 0.750735 -0.584246 4.78013 -0.0 0.0 -0.0 3.68377 13.9459 -6.1335 -7.12268 35.1455 -61.4846 0.762943 20.7035 -0.139364 28.1266 -0.120447 3.55507 7.64872 -11.0407 -72.8321 0.0 0.0 0.0 -15.8742 13.672 -0.383848 -35.8873 -0.226063 5.41398 23.3958 3.67856 -3.14731 -40.1201 0.0 0.0 -0.0 0.0 -0.0 16.9379 14.2431 -3.4167 -18.6473 -0.309284 -2.83226 39.1797 -21.8418 4.99699 9.37975 -0.0 -0.0 0.0 0.0 0.0 
2605.93755505 743.522 -1521.18096589 46.2964976717 81.4236981159 -47.6300724796 -2.22315 0.400166 -0.36937 -2.22317 0.422859 -0.343157 -2.22586 0.494753 -0.227564 -2.22564 0.452604 -0.302846 -18.7071 20.3143 1.85639 -20.9796 38.101 10.8207 -0.0 0.0 -0.0 1.28551 9.82117 3.38348 -11.2948 -29.1338 72.5338 0.737036 -20.0574 0.130342 -13.3558 -0.65714 1.57232 0.784973 -0.209751 5.16378 -0.0 0.0 -0.0 3.88615 14.7417 -6.49603 -5.39635 35.6612 -61.6418 0.735016 20.0068 -0.12965 27.481 -0.137316 3.47433 7.55554 -10.7884 -70.5103 0.0 0.0 0.0 -14.9946 13.2796 -0.428275 -37.7818 -0.33171 5.68523 26.4306 2.43652 -3.50354 -39.2411 0.0 0.0 -0.0 0.0 -0.0 15.7054 14.4568 -3.39368 -19.7068 -0.299012 -2.9945 36.7768 -22.8496 4.7873 8.97501 -0.0 -0.0 0.0 0.0 0.0 
2593.34673449 744.557 -1525.93692687 48.292296721 80.7992696281 -49.253267239 -2.42264 0.365272 -0.12785 -2.42271 0.372668 -0.104347 -2.4235 0.386931 -0.00733413 -2.42329 0.380917 -0.0683515 -19.0927 20.0627 1.88987 -21.3708 37.6237 10.87 -0.0 0.0 -0.0 0.937821 10.3314 2.83167 -12.0569 -28.9075 72.5012 0.657811 -18.0488 0.104475 -13.5124 -0.666986 1.58977 0.801983 0.281667 5.47913 -0.0 0.0 -0.0 4.0106 15.0713 -6.73299 -3.69013 36.1588 -61.2162 0.796007 21.5201 -0.151274 27.0068 -0.149126 3.4149 7.55391 -10.6863 -70.4051 0.0 0.0 0.0 -14.4133 10.4423 -0.786482 -37.75 -0.329864 5.68071 24.9801 3.69244 -3.33285 -40.0619 0.0 0.0 -0.0 0.0 -0.0 15.4577 14.2083 -4.49367 -21.9466 -0.267433 -3.33671 39.1031 -22.0563 4.9953 9.4105 -0.0 -0.0 0.0 0.0 0.0 
